<mxfile host="app.diagrams.net" agent="Mozilla/5.0 (Macintosh; Intel Mac OS X 10_15_7) AppleWebKit/605.1.15 (KHTML, like Gecko) Version/18.0.1 Safari/605.1.15" version="24.7.17">
  <diagram name="Página-1" id="DZLtTpUJ8UyFGv1l7qiw">
    <mxGraphModel dx="954" dy="647" grid="1" gridSize="10" guides="1" tooltips="1" connect="1" arrows="1" fold="1" page="1" pageScale="1" pageWidth="827" pageHeight="1169" math="0" shadow="0">
      <root>
        <mxCell id="0" />
        <mxCell id="1" parent="0" />
        <mxCell id="7oE44yD66bmKO6GS3iMy-1" value="Interfaz Abstracta Menú Principal" style="swimlane;whiteSpace=wrap;html=1;" vertex="1" parent="1">
          <mxGeometry x="40" y="40" width="480" height="250" as="geometry" />
        </mxCell>
        <mxCell id="7oE44yD66bmKO6GS3iMy-2" value="Acerca de Nosotros" style="text;html=1;align=center;verticalAlign=middle;whiteSpace=wrap;rounded=0;" vertex="1" parent="7oE44yD66bmKO6GS3iMy-1">
          <mxGeometry x="10" y="210" width="60" height="30" as="geometry" />
        </mxCell>
        <mxCell id="7oE44yD66bmKO6GS3iMy-3" value="Explora" style="text;html=1;align=center;verticalAlign=middle;whiteSpace=wrap;rounded=0;" vertex="1" parent="7oE44yD66bmKO6GS3iMy-1">
          <mxGeometry x="130" y="210" width="60" height="30" as="geometry" />
        </mxCell>
        <mxCell id="7oE44yD66bmKO6GS3iMy-4" value="Visitanos" style="text;html=1;align=center;verticalAlign=middle;whiteSpace=wrap;rounded=0;" vertex="1" parent="7oE44yD66bmKO6GS3iMy-1">
          <mxGeometry x="250" y="210" width="60" height="30" as="geometry" />
        </mxCell>
        <mxCell id="7oE44yD66bmKO6GS3iMy-5" value="Contactanos" style="text;html=1;align=center;verticalAlign=middle;whiteSpace=wrap;rounded=0;" vertex="1" parent="7oE44yD66bmKO6GS3iMy-1">
          <mxGeometry x="390" y="210" width="60" height="30" as="geometry" />
        </mxCell>
        <mxCell id="7oE44yD66bmKO6GS3iMy-6" value="Hostal No Fear Adventure" style="text;html=1;align=center;verticalAlign=middle;whiteSpace=wrap;rounded=0;" vertex="1" parent="7oE44yD66bmKO6GS3iMy-1">
          <mxGeometry x="40" y="30" width="110" height="30" as="geometry" />
        </mxCell>
        <mxCell id="7oE44yD66bmKO6GS3iMy-7" value="img" style="rounded=1;whiteSpace=wrap;html=1;" vertex="1" parent="7oE44yD66bmKO6GS3iMy-1">
          <mxGeometry x="10" y="30" width="40" height="20" as="geometry" />
        </mxCell>
        <mxCell id="7oE44yD66bmKO6GS3iMy-8" value="Es" style="rounded=1;whiteSpace=wrap;html=1;" vertex="1" parent="7oE44yD66bmKO6GS3iMy-1">
          <mxGeometry x="240" y="35" width="30" height="20" as="geometry" />
        </mxCell>
        <mxCell id="7oE44yD66bmKO6GS3iMy-9" value="Inicia Sesión" style="rounded=1;whiteSpace=wrap;html=1;" vertex="1" parent="7oE44yD66bmKO6GS3iMy-1">
          <mxGeometry x="290" y="30" width="90" height="30" as="geometry" />
        </mxCell>
        <mxCell id="7oE44yD66bmKO6GS3iMy-10" value="Registrate" style="rounded=1;whiteSpace=wrap;html=1;" vertex="1" parent="7oE44yD66bmKO6GS3iMy-1">
          <mxGeometry x="390" y="30" width="70" height="30" as="geometry" />
        </mxCell>
        <mxCell id="7oE44yD66bmKO6GS3iMy-11" value="" style="endArrow=none;html=1;rounded=0;" edge="1" parent="7oE44yD66bmKO6GS3iMy-1">
          <mxGeometry width="50" height="50" relative="1" as="geometry">
            <mxPoint y="70" as="sourcePoint" />
            <mxPoint x="480" y="70" as="targetPoint" />
          </mxGeometry>
        </mxCell>
        <mxCell id="7oE44yD66bmKO6GS3iMy-12" value="Reserva" style="rounded=1;whiteSpace=wrap;html=1;" vertex="1" parent="7oE44yD66bmKO6GS3iMy-1">
          <mxGeometry x="10" y="70" width="70" height="30" as="geometry" />
        </mxCell>
        <mxCell id="7oE44yD66bmKO6GS3iMy-13" value="Habitaciones" style="rounded=1;whiteSpace=wrap;html=1;" vertex="1" parent="7oE44yD66bmKO6GS3iMy-1">
          <mxGeometry x="90" y="70" width="80" height="30" as="geometry" />
        </mxCell>
        <mxCell id="7oE44yD66bmKO6GS3iMy-14" value="Promociones" style="rounded=1;whiteSpace=wrap;html=1;" vertex="1" parent="7oE44yD66bmKO6GS3iMy-1">
          <mxGeometry x="183.5" y="70" width="80" height="30" as="geometry" />
        </mxCell>
        <mxCell id="7oE44yD66bmKO6GS3iMy-15" value="" style="endArrow=none;html=1;rounded=0;" edge="1" parent="1">
          <mxGeometry width="50" height="50" relative="1" as="geometry">
            <mxPoint x="40" y="250" as="sourcePoint" />
            <mxPoint x="520" y="250" as="targetPoint" />
          </mxGeometry>
        </mxCell>
        <mxCell id="7oE44yD66bmKO6GS3iMy-16" value="" style="endArrow=none;html=1;rounded=0;" edge="1" parent="1">
          <mxGeometry width="50" height="50" relative="1" as="geometry">
            <mxPoint x="40" y="140" as="sourcePoint" />
            <mxPoint x="520" y="140" as="targetPoint" />
          </mxGeometry>
        </mxCell>
      </root>
    </mxGraphModel>
  </diagram>
</mxfile>
